<svg xmlns="http://www.w3.org/2000/svg" viewBox="0 0 1200 300"><g id="Shadow"><path d="M33,276.28c-.85-1.61,1.52-2.95,3.31-3.24,41.74-6.77,84.36-4.39,126.58-2A8.89,8.89,0,0,1,167,272a3,3,0,0,1,1.43,3.65c-.65,1.37-2.43,1.68-4,1.81q-33.75,2.88-67.65,3C76.24,280.47,53,282.14,33,276.28Z" style="opacity:0.30000000000000004"/><path d="M1046.3,276.13a3.07,3.07,0,0,1-1.24-3.81,4.32,4.32,0,0,1,3-1.7c8-1.82,16.34-2,24.57-2.07q16.72-.21,33.43-.3c8.77-.05,17.61-.06,26.18,1.76,3.55.75,7.57,2.35,8.46,5.86a443.42,443.42,0,0,1-49.4,3.26q-12.25.14-24.49-.42C1061,278.45,1051.35,279.59,1046.3,276.13Z" style="opacity:0.30000000000000004"/><path d="M842.81,272.3c1,2.9,4.3,4.21,7.29,4.86,6.35,1.39,12.91,1.5,19.41,1.6l61.65,1c4.11.07,8.44.08,12.05-1.89a3.41,3.41,0,0,0,1.75-1.76c.59-1.8-1.47-3.29-3.23-4-14-5.68-30.61-5-45.48-5C891.73,267,842.49,271.35,842.81,272.3Z" style="opacity:0.30000000000000004"/><path d="M648.18,270.83c-1.4.17-3,.51-3.61,1.79-1,2.33,2.32,4.06,4.85,4.34,9.5,1.08,19.08,1.05,28.65,1l31.16-.11a124.53,124.53,0,0,0,19.12-1.05,7.85,7.85,0,0,0,4-1.46,2.93,2.93,0,0,0,.71-3.81,4.27,4.27,0,0,0-2.72-1.25C703.39,265.24,675.19,267.55,648.18,270.83Z" style="opacity:0.30000000000000004"/><path d="M441.1,274c.4,3.41,4.8,4.44,8.24,4.61q43.46,2.08,87,1.21c5.9-.12,11.88-.29,17.57-1.88,2.24-.63,4.88-2.22,4.44-4.5-19.18-5.1-37.88-4.88-57.41-5.79C495.77,267.37,440.71,270.55,441.1,274Z" style="opacity:0.30000000000000004"/><path d="M242.73,274.59c2.05,3.77,7.17,4.24,11.46,4.24h95.58c3.51,0,7.61-.3,9.55-3.23-2.29-2.86-6.27-3.59-9.9-4.07C313.18,266.66,278.56,266.88,242.73,274.59Z" style="opacity:0.30000000000000004"/></g><g id="Charactor"><path d="M136,212.65c-.4-4.27-.41-11.81-4.94-13.68-4.18-2.67-5.32,6.19-4.87,8.85a2.63,2.63,0,0,0,1.53,1.77,18,18,0,0,0,1.65,4.34C131.31,217.43,135.9,217.11,136,212.65Z" style="fill:#2c2c2c"/><path d="M131.42,200.47c-1.69-7.68-4.58-20.2-10.88-25.87-1.06-1-4-1.38-4.61.58C113.05,185,134.05,214.51,131.42,200.47Z" style="fill:#2c2c2c"/><path d="M121.88,175.18c-2.3-6.53-9.81-24-18.07-22.66-.92.41-4.07,1.36-2.81,2.64-.5,8,10.58,20.55,16.46,25.82C122.89,183.26,123.31,179.86,121.88,175.18Z" style="fill:#2c2c2c"/><path d="M66.55,272.88a.75.75,0,0,0-.27-.26c-.7-3.91-5.28-4.54-8.07-6.43-2.23-1.86-9.53-5.26-9.58-.2,2,4.49,7.09,6.51,10.95,9.09l0,0,.17.08-.1-.05C61.82,276,67,276.5,66.55,272.88Z" style="fill:#2c2c2c"/><path d="M79.77,242.71c0-3.31-3.51-6.12-5.49-5.61A4.9,4.9,0,0,0,70.8,240c-4.21,10.71-8.23,22.28-9.46,33.7,4,4.86,6.8-3.93,8.48-6.72C74.35,259.53,80.29,252,79.77,242.71Z" style="fill:#2c2c2c"/><path d="M105,206c-2.34-7.25-12.45-4-15.88.71l0,0a15.44,15.44,0,0,0-3,5.27C80.67,221.08,75.44,230.45,70.8,240c-2.15,18.54,16.85-3.29,20.55-8.34l-.11.14C96.05,224.6,105.57,215,105,206Z" style="fill:#2c2c2c"/><path d="M148,258.34c-.59-1.72-1.81-4.46-4.07-3.34-.58.29-1.5.77-1.36,1.54C122.61,290.63,151.67,271.6,148,258.34Z" style="fill:#2c2c2c"/><path d="M147.83,259.14c-9.72-8.84-13.13-16-22.42-19.82h0l-.17-.07.09,0c-3.37-1.73-8.74-.64-9.44,1.2a4.67,4.67,0,0,0,1.15,5.14c6.38,5.89,14.28,9.81,21.91,13.77C141.58,260.68,148.73,265.26,147.83,259.14Z" style="fill:#2c2c2c"/><path d="M122,240.84c-.4-12.9-2.38-28.75-12.45-37.76-3.61-2.13-10.21-2-11.25,2.92,0,1.09-1.39,4.74.57,4.28A92.06,92.06,0,0,0,108.2,233l-.06-.11c.35.64.72,1.26,1.08,1.89l-.09-.16C111.41,239.48,120.39,253.53,122,240.84Z" style="fill:#2c2c2c"/><path d="M129.33,219.79c-.56-1.63-1.59-3.09-2.25-4.7,0,.06,0,.12.07.17-1.26-2.62-2.65-5.18-3.81-7.85l0,.06c0-.06-.05-.12-.08-.17l0,.1a50.29,50.29,0,0,1-4.48-16l0,.18-.51-3.7v0A148.74,148.74,0,0,1,115.62,168v0a28.93,28.93,0,0,0-4.23-12.62c-2.58-4.19-6.79-9.74-12.48-7.21-6.32,2.68-8.11,10.37-10,16.2-2.49,17.44-1.24,36.92-13,51.69h0c-.43.54-.86,1.08-1.26,1.65l0,0c-.68.62-.81,1.64.18,2,3.31,1.08,6.11,3.27,9.47,4.23C97.58,227.17,119.34,230.25,129.33,219.79Z" style="fill:#2c2c2c"/><path d="M75.75,201.44a3.18,3.18,0,0,0-4.73-1.5c-2.1.79-11.33,3.66-8.09,6.66-2.46,3.28-4.44,10.34,2.2,8.8C69.85,212.59,76.55,207.59,75.75,201.44Z" style="fill:#2c2c2c"/><path d="M90.85,182.24c-.44-1.75-1.93-4-4-3.21-1,0-1.29,1.33-2.07,1.8l0,0c-.4.38-2,2.63-2,2.59C77,188.8,69.75,201,69.77,201,61.67,218.28,94.22,195.51,90.85,182.24Z" style="fill:#2c2c2c"/><path d="M103.25,156.81c-1-2.84-4.76-4.21-7-1.83h0l-.08.06h0l-.08.06h0c-6.71,7.1-9.58,18.69-12.32,29-1.22,4.57,6.57,4.09,8.59.43l0,.06a53.79,53.79,0,0,0,8.07-12.43l-.08.16C102.46,167.49,105.4,162.07,103.25,156.81Z" style="fill:#2c2c2c"/><path d="M278,205.87a3.18,3.18,0,0,0-4.87-.91c-2,1-10.8,5-7.22,7.59-2.05,3.56-3.15,10.81,3.26,8.48C273.48,217.66,279.51,211.88,278,205.87Z" style="fill:#2c2c2c"/><path d="M290.61,185c-.64-1.69-2.4-3.77-4.37-2.7-1,.12-1.11,1.48-1.83,2h0a30.58,30.58,0,0,0-1.64,2.8c-5.17,6.08-10.83,19-10.82,19C266.06,224.3,295.58,197.73,290.61,185Z" style="fill:#2c2c2c"/><path d="M303.94,160.29c-.76-2.93-4.35-4.64-6.77-2.47h0l-.08.05h0l-.08.05h0c-7.34,6.44-11.29,17.71-15,27.7-1.64,4.44,6.17,4.69,8.52,1.24l-.05.06a54.15,54.15,0,0,0,9.2-11.62,1.3,1.3,0,0,0-.1.15C302.14,170.85,305.58,165.73,303.94,160.29Z" style="fill:#2c2c2c"/><path d="M104.25,148.43c-.47-2.52-.86-6.45-3.92-7-2.27-.29-7.18,0-7,3.05.59,2.62,1.56,6.32,4.17,7.56C100.17,152.72,105,152.3,104.25,148.43Z" style="fill:#2c2c2c"/><path d="M115.6,138.77c-3.51-5.62.88-17-9.79-16.79-4.53-6.61-13.76-2.68-18,2.34-1.26,1.39-4.84,3.29-2,5a10.54,10.54,0,0,0-.94,1.83A1.11,1.11,0,0,0,85,131c-.85,1.91-.48,4.21-1.64,6-2.54,1.7-3.16,2.41.06,3.83-.49,11.3,14,8.08,20.62,5h0c3.23-1.08,5.57-3.81,8.81-4.81C113.85,140.57,116.73,140.61,115.6,138.77Z" style="fill:#2c2c2c"/><path d="M330.65,216.8c.81-4.21,2.92-11.44-.91-14.51-3.26-3.74-6.84,4.45-7.15,7.12a2.58,2.58,0,0,0,1,2.13,18,18,0,0,0,.36,4.63C324.84,220.08,329.33,221.07,330.65,216.8Z" style="fill:#2c2c2c"/><path d="M329.78,203.54c-.88-7.82-2.43-20.57-8.11-26.88-.95-1.06-3.87-1.79-4.65.1C313.13,186.26,330.92,217.78,329.78,203.54Z" style="fill:#2c2c2c"/><path d="M322.26,177.23c-2.57-6.43-10.8-23.56-19-21.88-.91.44-4,1.53-2.7,2.75-.17,8,11.43,20.09,17.52,25.1C323.62,185.25,323.89,181.84,322.26,177.23Z" style="fill:#2c2c2c"/><path d="M298.54,269.48a.68.68,0,0,0-.37-.07c-2.73-2.88-6.9-.88-10.28-.92-2.88-.33-10.84.86-8.1,5.11,4.11,2.67,9.5,1.52,14.14,1.55h0l.18,0-.11,0C296.32,274.7,300.94,272.23,298.54,269.48Z" style="fill:#2c2c2c"/><path d="M286.79,238.59c-2.36-2.33-6.79-1.91-7.85-.16a4.92,4.92,0,0,0-.42,4.53c4.5,10.59,9.74,21.66,16.88,30.66,6.25.68,2.09-7.56,1.33-10.73C294.71,254.38,293.64,244.81,286.79,238.59Z" style="fill:#2c2c2c"/><path d="M313.16,203.34c-2.33-7.25-12.45-4-15.88.7l0,0a15.31,15.31,0,0,0-3,5.27c-5.51,9.12-10.74,18.49-15.37,28.07-2.16,18.54,16.84-3.29,20.54-8.34a.76.76,0,0,1-.11.14C304.18,221.93,313.7,212.29,313.16,203.34Z" style="fill:#2c2c2c"/><path d="M337.69,251.41c-1-1.54-2.75-3.95-4.7-2.36-.51.41-1.3,1.08-1,1.8C320,288.49,344.15,263.55,337.69,251.41Z" style="fill:#2c2c2c"/><path d="M336.75,250.39c-9.64-5.86-13.75-11.77-22.15-13h0l-.15,0,.09,0c-3.11-.78-7.38,1.64-7.64,3.55a4.57,4.57,0,0,0,1.87,4.57c6.35,3.94,13.6,5.61,20.65,7.41C331.83,253.45,338.59,256,336.75,250.39Z" style="fill:#2c2c2c"/><path d="M313.5,241.31c3.82-12.33,7.1-28,.51-39.76-2.73-3.18-9-5.23-11.6-.89-.39,1-2.86,4-.85,4.23A91.8,91.8,0,0,0,303,229.43l0-.12c.13.71.27,1.43.41,2.13l0-.17C303.9,236.57,307.83,252.78,313.5,241.31Z" style="fill:#2c2c2c"/><path d="M329.35,222.15c-.56-1.64-1.58-3.1-2.24-4.7,0,.05,0,.11.07.17-1.27-2.62-2.66-5.19-3.81-7.86l0,.06c0-.06-.05-.11-.07-.17l.05.11a50.09,50.09,0,0,1-4.48-16c0,.06,0,.12,0,.19-.17-1.23-.33-2.47-.5-3.7v0a146.76,146.76,0,0,1-2.76-19.9v0a29,29,0,0,0-4.22-12.61c-2.58-4.2-6.8-9.75-12.48-7.21-6.33,2.67-8.12,10.36-10,16.2-2.5,17.43-1.25,36.91-13.05,51.68h0c-.44.54-.87,1.09-1.26,1.66l0,0c-.68.62-.81,1.64.17,2,3.31,1.08,6.11,3.27,9.48,4.22C297.6,229.52,319.36,232.6,329.35,222.15Z" style="fill:#2c2c2c"/><path d="M304.27,150.78c-.47-2.52-.86-6.45-3.91-7-2.28-.28-7.18,0-7.05,3,.59,2.63,1.55,6.33,4.16,7.56C300.19,155.07,305.05,154.66,304.27,150.78Z" style="fill:#2c2c2c"/><path d="M315.62,141.13c-3.5-5.63.88-17-9.79-16.79-4.52-6.62-13.76-2.69-18,2.33-1.27,1.39-4.84,3.29-2,5a10.11,10.11,0,0,0-.94,1.82l.07-.16c-.85,1.92-.49,4.22-1.65,6-2.54,1.7-3.16,2.41.06,3.83-.48,11.3,14,8.08,20.62,5h0c3.23-1.07,5.56-3.8,8.81-4.81C313.87,142.93,316.76,143,315.62,141.13Z" style="fill:#2c2c2c"/><path d="M487.65,199.93a2.86,2.86,0,0,0-4.46-.13c-1.62,1.2-8.9,6-5.36,7.75-1.32,3.46-1.29,10.06,4.08,7.08C485.3,211,489.86,205.05,487.65,199.93Z" style="fill:#2c2c2c"/><path d="M496,179.58c-.81-1.41-2.66-3-4.26-1.79-.84.24-.79,1.47-1.35,2.07l0,0a28.55,28.55,0,0,0-1.07,2.73c-3.74,6.12-7,18.43-7,18.41C479.63,218,502.17,190.23,496,179.58Z" style="fill:#2c2c2c"/><path d="M503.48,156c-1.15-2.46-4.61-3.38-6.39-1.07h0l-.07.06h0L497,155h0c-5.43,6.91-7.06,17.53-8.68,27-.72,4.2,6.23,3.13,7.74-.31l0,.06a48.23,48.23,0,0,0,6.21-11.8s0,.1-.05.15C503.64,165.59,505.83,160.5,503.48,156Z" style="fill:#2c2c2c"/><path d="M524.48,214.4c1.5-4,4.77-10.81,1.5-14.47-2.6-4.22-7.48,3.26-8.23,5.85a2.62,2.62,0,0,0,.61,2.26,18.37,18.37,0,0,0-.41,4.62C518.21,216.67,522.48,218.39,524.48,214.4Z" style="fill:#2c2c2c"/><path d="M525.82,201.17c.42-7.85,1-20.69-3.57-27.84-.76-1.21-3.52-2.41-4.59-.68C512.25,181.38,524.59,215.4,525.82,201.17Z" style="fill:#2c2c2c"/><path d="M522.9,173.08c-2.62-6.41-11-23.47-19.17-21.73-.91.46-4,1.56-2.68,2.78-.1,8,11.59,20,17.72,25C524.32,181.09,524.57,177.68,522.9,173.08Z" style="fill:#2c2c2c"/><path d="M506.74,269.84a.76.76,0,0,0-.36-.06c-2.79-2.83-6.92-.76-10.3-.74-2.89-.28-10.83,1-8,5.24,4.16,2.6,9.53,1.36,14.17,1.31h0l.18,0-.11,0C504.61,275.1,509.19,272.55,506.74,269.84Z" style="fill:#2c2c2c"/><path d="M497,237.4c-2.2-2.48-6.65-2.34-7.82-.66a4.91,4.91,0,0,0-.71,4.49c3.81,10.86,8.32,22.24,14.86,31.69,6.19,1.07,2.58-7.41,2-10.62C503.85,253.67,503.4,244.05,497,237.4Z" style="fill:#2c2c2c"/><path d="M507.36,194.22c-4.75-5.95-13.06.66-14.58,6.3v0a15.24,15.24,0,0,0-.93,6c-1.9,10.48-3.47,21.09-4.39,31.7,4.58,18.1,14.57-9.07,16.24-15.1a1.09,1.09,0,0,0,0,.17C505.58,214.79,511.05,202.39,507.36,194.22Z" style="fill:#2c2c2c"/><path d="M529.23,252.32c-.74-1.66-2.19-4.29-4.34-3-.56.34-1.43.89-1.23,1.65C506.61,286.63,534,265.23,529.23,252.32Z" style="fill:#2c2c2c"/><path d="M528.66,251.49c-8.48-6.49-11.79-12.51-19.5-14.44h0l-.14,0,.08,0c-2.83-1-7,.92-7.42,2.73a4.46,4.46,0,0,0,1.35,4.54c5.57,4.34,12.18,6.6,18.58,8.94C523.81,254,529.88,257,528.66,251.49Z" style="fill:#2c2c2c"/><path d="M508.52,240.21c6-11.44,12-26.23,7.66-39-2.1-3.63-7.91-6.77-11.24-3-.57.93-3.54,3.45-1.6,4a91.72,91.72,0,0,0-3,24.39v-.12c0,.73,0,1.45,0,2.17v-.18C499.93,233.81,500.88,250.47,508.52,240.21Z" style="fill:#2c2c2c"/><path d="M529.85,218.15c-.56-1.64-1.58-3.1-2.24-4.7,0,.05,0,.11.07.17-1.27-2.62-2.66-5.19-3.81-7.86l0,.06c0-.06,0-.11-.07-.17l0,.11a50.09,50.09,0,0,1-4.48-16c0,.06,0,.12,0,.19-.17-1.23-.33-2.47-.5-3.7v0a146.76,146.76,0,0,1-2.76-19.9v0a29,29,0,0,0-4.22-12.61c-2.58-4.2-6.8-9.75-12.48-7.21-6.33,2.67-8.12,10.36-10,16.2-2.5,17.43-1.25,36.91-13.05,51.68h0c-.44.54-.87,1.09-1.26,1.66l0,0c-.68.62-.81,1.64.17,2,3.31,1.08,6.11,3.27,9.48,4.22C498.1,225.52,519.86,228.6,529.85,218.15Z" style="fill:#2c2c2c"/><path d="M504.77,146.78c-.47-2.52-.86-6.45-3.91-7-2.28-.28-7.18,0-7.05,3,.59,2.63,1.55,6.33,4.16,7.56C500.69,151.07,505.55,150.66,504.77,146.78Z" style="fill:#2c2c2c"/><path d="M516.12,137.13c-3.5-5.63.88-17-9.79-16.79-4.52-6.62-13.76-2.69-18,2.33-1.27,1.39-4.84,3.29-2,5a10.11,10.11,0,0,0-.94,1.82l.07-.16c-.85,1.92-.49,4.22-1.65,6-2.54,1.7-3.16,2.41.06,3.83-.48,11.3,14,8.08,20.62,5h0c3.23-1.07,5.56-3.8,8.81-4.81C514.37,138.93,517.26,139,516.12,137.13Z" style="fill:#2c2c2c"/><path d="M1131,211.85c.08-4.29.93-11.77-3.36-14.15-3.85-3.12-6,5.55-5.84,8.24a2.59,2.59,0,0,0,1.31,1.93,18,18,0,0,0,1.15,4.5C1125.84,216.07,1130.43,216.28,1131,211.85Z" style="fill:#2c2c2c"/><path d="M1129.74,198.51c-.81-7.83-2.26-20.6-7.88-26.95-.94-1.07-3.86-1.82-4.65.05C1113.24,181.08,1130.76,212.75,1129.74,198.51Z" style="fill:#2c2c2c"/><path d="M1122.64,171.92c-2.3-6.53-9.81-24-18.07-22.66-.92.41-4.07,1.36-2.81,2.64-.5,7.95,10.58,20.55,16.46,25.82C1123.65,180,1124.07,176.6,1122.64,171.92Z" style="fill:#2c2c2c"/><path d="M1084,264.23a.64.64,0,0,0-.35-.1c-2.51-3.08-6.82-1.41-10.19-1.71-2.84-.56-10.87,0-8.47,4.45,3.89,3,9.35,2.26,14,2.65h0l.18,0H1079C1081.36,269.26,1086.15,267.15,1084,264.23Z" style="fill:#2c2c2c"/><path d="M1080.93,231.43c-1.65-2.88-6-3.66-7.52-2.25a4.87,4.87,0,0,0-1.62,4.24c1.5,11.41,3.58,23.49,8,34.07,5.84,2.32,4-6.73,4.16-10C1084.33,248.77,1085.86,239.26,1080.93,231.43Z" style="fill:#2c2c2c"/><path d="M1105.79,195.75c-2.33-7.25-12.45-4-15.88.7l0,0a15.26,15.26,0,0,0-3,5.28c-5.51,9.12-10.74,18.48-15.38,28.07-2.15,18.54,16.85-3.3,20.55-8.35l-.11.15C1096.81,214.34,1106.33,204.7,1105.79,195.75Z" style="fill:#2c2c2c"/><path d="M1135.14,267.23c.5-1.75,1.08-4.69-1.4-5.08-.65-.09-1.67-.23-2,.48C1095.76,279,1130.47,280.16,1135.14,267.23Z" style="fill:#2c2c2c"/><path d="M1135.3,266.05c-4.43-12.37-4.07-20.3-10.48-28h0a1.71,1.71,0,0,1-.11-.14l.06.08c-2.16-3.11-7.42-4.66-8.9-3.38a4.68,4.68,0,0,0-1.4,5.08c2.87,8.21,8,15.37,12.87,22.45C1129.06,264.47,1133.22,271.87,1135.3,266.05Z" style="fill:#2c2c2c"/><path d="M1120.91,235.5c.33-12.9-.74-28.84-10.29-38.4-3.48-2.33-10.08-2.6-11.4,2.28-.1,1.08-1.66,4.66.33,4.3a91.37,91.37,0,0,0,8,23.24l-.06-.1c.32.65.65,1.3,1,1.94l-.08-.16C1110.39,233.54,1118.56,248.08,1120.91,235.5Z" style="fill:#2c2c2c"/><path d="M1130.09,216.53c-.56-1.64-1.59-3.1-2.25-4.7l.08.17c-1.27-2.62-2.66-5.18-3.81-7.85l0,0s-.05-.11-.07-.17,0,.07,0,.11a50.35,50.35,0,0,1-4.48-16l0,.19-.51-3.7v0a148.74,148.74,0,0,1-2.77-19.91v0a28.93,28.93,0,0,0-4.23-12.62c-2.57-4.19-6.79-9.74-12.48-7.21-6.32,2.67-8.11,10.37-10,16.2-2.49,17.44-1.24,36.92-13,51.69h0c-.43.54-.86,1.08-1.26,1.65l0,0c-.69.61-.82,1.64.17,2,3.31,1.08,6.11,3.27,9.47,4.23C1098.34,223.91,1120.1,227,1130.09,216.53Z" style="fill:#2c2c2c"/><path d="M1079.64,201.08a3.18,3.18,0,0,0-4.79-1.27c-2.06.88-11.15,4.19-7.77,7-2.3,3.4-3.95,10.54,2.62,8.69C1074.28,212.5,1080.73,207.18,1079.64,201.08Z" style="fill:#2c2c2c"/><path d="M1093.81,181.18c-.52-1.73-2.12-3.94-4.16-3-1,.05-1.22,1.39-2,1.9l0,0c-.39.4-1.89,2.72-1.85,2.68-5.6,5.67-12.21,18.17-12.2,18.15C1066.38,218.57,1097.81,194.28,1093.81,181.18Z" style="fill:#2c2c2c"/><path d="M1104.44,153.46c-1.19-2.78-5-3.94-7.06-1.44h0l-.08.06h0l-.08.06h0c-6.3,7.46-8.53,19.2-10.7,29.63-1,4.63,6.8,3.72,8.61-.05l-.05.06a53.63,53.63,0,0,0,7.37-12.85s0,.11-.07.17C1104.23,164.16,1106.87,158.6,1104.44,153.46Z" style="fill:#2c2c2c"/><path d="M1105,145.17c-.47-2.52-.86-6.45-3.92-7-2.27-.29-7.17,0-7,3,.59,2.63,1.55,6.33,4.16,7.57C1100.93,149.46,1105.78,149,1105,145.17Z" style="fill:#2c2c2c"/><path d="M1116.36,135.51c-3.5-5.62.88-17-9.79-16.79-4.53-6.61-13.76-2.69-18,2.34-1.27,1.39-4.85,3.29-2,5a9.94,9.94,0,0,0-.95,1.83,1.11,1.11,0,0,0,.07-.16c-.84,1.91-.48,4.21-1.64,6-2.54,1.7-3.16,2.41.06,3.83-.49,11.29,14,8.08,20.62,5h0c3.23-1.08,5.57-3.81,8.81-4.82C1114.61,137.31,1117.49,137.35,1116.36,135.51Z" style="fill:#2c2c2c"/><path d="M923.6,211.65c1-4.17,3.44-11.3-.24-14.54-3.09-3.88-7,4.13-7.47,6.79a2.59,2.59,0,0,0,.87,2.17,18,18,0,0,0,.16,4.64C917.65,214.66,922.09,215.85,923.6,211.65Z" style="fill:#2c2c2c"/><path d="M923.26,198.66c.89-7.82,2.22-20.59-1.9-28-.7-1.24-3.38-2.6-4.55-.94C910.89,178.1,921.19,212.79,923.26,198.66Z" style="fill:#2c2c2c"/><path d="M922.08,170.92c-2.3-6.53-9.8-24-18.06-22.66-.93.41-4.08,1.36-2.81,2.64-.5,7.95,10.57,20.55,16.45,25.82C923.1,179,923.52,175.6,922.08,170.92Z" style="fill:#2c2c2c"/><path d="M910.36,254.35a.75.75,0,0,0-.3.2c-4-.16-5.58,4.17-8,6.49-2.29,1.76-7.2,8.15-2.28,9.3,4.81-.93,7.9-5.5,11.26-8.71l0,0,.1-.15-.06.09C912.4,259.65,914,254.66,910.36,254.35Z" style="fill:#2c2c2c"/><path d="M883.79,234.89c-3.24-.68-6.73,2.09-6.67,4.13a4.89,4.89,0,0,0,2.11,4c9.53,6.44,19.95,12.89,30.83,16.57,5.62-2.84-2.35-7.49-4.71-9.73C899,243.84,892.93,236.39,883.79,234.89Z" style="fill:#2c2c2c"/><path d="M904.63,195.68c-3.55-6.74-13-1.81-15.51,3.44v0a15.36,15.36,0,0,0-2,5.71c-3.84,9.94-7.38,20.07-10.29,30.31,1.09,18.63,16-6.15,18.8-11.77l-.09.16C899,215.54,906.71,204.4,904.63,195.68Z" style="fill:#2c2c2c"/><path d="M927.79,268.73c.68-1.69,1.55-4.56-.89-5.19-.63-.16-1.63-.4-2,.27C887.44,276.49,921.86,281.14,927.79,268.73Z" style="fill:#2c2c2c"/><path d="M928.07,267.58c-3.18-12.75-2-20.61-7.65-28.94l0,0a1.3,1.3,0,0,1-.1-.15l0,.08c-1.84-3.31-6.92-5.38-8.52-4.24a4.65,4.65,0,0,0-1.89,4.91c2,8.45,6.42,16.08,10.57,23.62C922,265.39,925.42,273.16,928.07,267.58Z" style="fill:#2c2c2c"/><path d="M916.79,237.75c1.6-12.8,2.12-28.77-6.43-39.23-3.24-2.67-9.78-3.59-11.58,1.14-.2,1.06-2.11,4.46-.1,4.31a92.37,92.37,0,0,0,5.66,23.92s0-.08,0-.11c.25.67.51,1.35.77,2l-.06-.17C906.51,234.75,913.2,250,916.79,237.75Z" style="fill:#2c2c2c"/><path d="M929.53,215.53c-.56-1.64-1.58-3.1-2.24-4.7a1.22,1.22,0,0,0,.07.17c-1.27-2.62-2.66-5.18-3.81-7.85l0,0s-.05-.11-.07-.17a.54.54,0,0,0,0,.11,50.09,50.09,0,0,1-4.48-16,1.11,1.11,0,0,0,0,.19c-.17-1.23-.33-2.46-.5-3.7v0a147.12,147.12,0,0,1-2.76-19.91v0a28.93,28.93,0,0,0-4.23-12.62c-2.57-4.19-6.79-9.74-12.47-7.21-6.33,2.67-8.12,10.37-10,16.2-2.5,17.44-1.25,36.92-13.05,51.69h0c-.43.54-.86,1.08-1.25,1.65l0,0c-.69.61-.81,1.64.17,2,3.31,1.08,6.11,3.27,9.48,4.23C897.78,222.91,919.54,226,929.53,215.53Z" style="fill:#2c2c2c"/><path d="M881.46,199.47a3.18,3.18,0,0,0-4.67-1.67c-2.12.71-11.46,3.24-8.33,6.35-2.58,3.19-4.82,10.17,1.88,8.88C875.15,210.4,882,205.65,881.46,199.47Z" style="fill:#2c2c2c"/><path d="M897.26,180.84c-.37-1.77-1.78-4.1-3.89-3.36-1,0-1.33,1.28-2.13,1.73l0,0c-.42.37-2.11,2.55-2.07,2.51-6.06,5.18-13.71,17.08-13.69,17.06C866.77,215.78,900.14,194.23,897.26,180.84Z" style="fill:#2c2c2c"/><path d="M903.34,151.78c-1.62-2.56-5.56-3.09-7.2-.3h0l-.06.07h0l-.07.07h0c-5,8.37-5.36,20.31-5.85,30.95-.21,4.73,7.3,2.59,8.5-1.41l0,.07a54,54,0,0,0,5.22-13.87,1.16,1.16,0,0,1,0,.18C904.84,162.38,906.56,156.47,903.34,151.78Z" style="fill:#2c2c2c"/><path d="M904.45,144.17c-.47-2.52-.86-6.45-3.91-7-2.28-.29-7.18,0-7,3,.59,2.63,1.55,6.33,4.16,7.57C900.37,148.46,905.23,148,904.45,144.17Z" style="fill:#2c2c2c"/><path d="M915.8,134.51c-3.5-5.62.88-17-9.79-16.79-4.52-6.61-13.76-2.69-18,2.34-1.27,1.39-4.84,3.29-2,5a10.54,10.54,0,0,0-.94,1.83,1.11,1.11,0,0,1,.07-.16c-.85,1.91-.49,4.21-1.65,6-2.54,1.7-3.16,2.41.06,3.83-.48,11.29,14,8.08,20.62,5h0c3.23-1.08,5.56-3.81,8.81-4.82C914.05,136.31,916.94,136.35,915.8,134.51Z" style="fill:#2c2c2c"/><path d="M699.21,212.62c2.77-3.27,8.16-8.53,6.33-13.09-1-4.85-8.14.51-9.73,2.69a2.62,2.62,0,0,0-.2,2.33,18,18,0,0,0-2,4.22C692.54,212.62,696,215.69,699.21,212.62Z" style="fill:#2c2c2c"/><path d="M704.75,200.87c4.32-6.58,11.27-17.38,10.93-25.86-.06-1.42-1.84-3.85-3.64-2.9C703,176.94,696.54,212.55,704.75,200.87Z" style="fill:#2c2c2c"/><path d="M715.62,174.58c-.21-6.92-2.06-25.84-10.33-27.08-1,.11-4.3.06-3.48,1.66-2.89,7.43,3.83,22.79,7.84,29.6C714.13,182.58,715.56,179.47,715.62,174.58Z" style="fill:#2c2c2c"/><path d="M707.53,240.46a.78.78,0,0,0-.18.32c-3.58,1.71-3,6.3-4.05,9.5-1.21,2.63-2.55,10.57,2.34,9.29,3.81-3.08,4.39-8.57,5.86-13v0a1.1,1.1,0,0,1,0-.18l0,.11C711.81,244.19,710.89,239,707.53,240.46Z" style="fill:#2c2c2c"/><path d="M685.86,233.46c-2.32.5-4.28,4.28-3.93,6.15a3.73,3.73,0,0,0,2.06,3c7.5,2.65,15.61,5,23.61,4.64,3.4-4.58-2.76-6.13-4.71-7.39C697.64,236.46,692.33,231.67,685.86,233.46Z" style="fill:#2c2c2c"/><path d="M708.56,195.47c-3.74-6.63-13-1.44-15.41,3.88l0,0a15.44,15.44,0,0,0-1.88,5.76c-3.55,10-6.8,20.27-9.41,30.59,1.62,18.6,15.84-6.61,18.45-12.3,0,0-.05.11-.08.16C703.51,215.49,710.89,204.13,708.56,195.47Z" style="fill:#2c2c2c"/><path d="M713.75,271.69c1-1.5,2.47-4.12.23-5.26-.59-.29-1.51-.74-2.05-.17C672.66,270.69,705.31,282.55,713.75,271.69Z" style="fill:#2c2c2c"/><path d="M714.26,269.62c-1.14-13.08,1.22-20.67-3-29.77v0l-.08-.17,0,.09c-1.3-3.56-6-6.39-7.75-5.53a4.68,4.68,0,0,0-2.64,4.56c.68,8.66,3.82,16.89,6.74,25C708.62,266.51,710.77,274.73,714.26,269.62Z" style="fill:#2c2c2c"/><path d="M708.16,237.42c3.6-12.39,6.61-28.08-.19-39.76-2.78-3.14-9.09-5.07-11.61-.69-.37,1-2.79,4.08-.78,4.25a91.71,91.71,0,0,0,1.84,24.51l0-.12.45,2.13c0-.06,0-.12,0-.18C698.48,232.85,702.7,249,708.16,237.42Z" style="fill:#2c2c2c"/><path d="M729.54,214.53c-.56-1.64-1.59-3.1-2.25-4.7,0,.06.05.11.07.17-1.26-2.62-2.65-5.18-3.81-7.85l0,0s-.05-.11-.08-.17l0,.11a50.35,50.35,0,0,1-4.48-16l0,.19-.51-3.7v0a147.14,147.14,0,0,1-2.77-19.91v0a28.93,28.93,0,0,0-4.23-12.62c-2.58-4.19-6.79-9.74-12.48-7.21-6.32,2.67-8.12,10.37-10,16.2-2.49,17.44-1.24,36.92-13,51.69h0c-.44.54-.86,1.08-1.26,1.65l0,0c-.68.61-.81,1.64.18,2,3.31,1.08,6.11,3.27,9.47,4.23C697.79,221.91,719.55,225,729.54,214.53Z" style="fill:#2c2c2c"/><path d="M695,201.08a3.19,3.19,0,0,0-4.95-.36c-1.85,1.24-10.18,6.18-6.33,8.34-1.64,3.77-1.93,11.09,4.18,8.06C691.86,213.3,697.22,206.88,695,201.08Z" style="fill:#2c2c2c"/><path d="M705.27,178.91c-.83-1.61-2.81-3.48-4.64-2.2-1,.22-1,1.59-1.6,2.23l0,0a30.65,30.65,0,0,0-1.32,3c-4.46,6.61-8.65,20.12-8.64,20.09C685.22,220.72,711.62,191.05,705.27,178.91Z" style="fill:#2c2c2c"/><path d="M703.37,149.28c-2.24-2-6.17-1.5-7,1.64v0l0,.09v0l-.05.09h0c-2.62,9.41.25,21,2.63,31.39,1.05,4.61,7.72.54,7.8-3.63v.07A53.81,53.81,0,0,0,708,164.12a1.21,1.21,0,0,0,0,.19C707.65,159.1,707.72,152.94,703.37,149.28Z" style="fill:#2c2c2c"/><path d="M704.46,143.17c-.47-2.52-.87-6.45-3.92-7-2.27-.29-7.18,0-7,3,.59,2.63,1.56,6.33,4.16,7.57C700.38,147.46,705.23,147,704.46,143.17Z" style="fill:#2c2c2c"/><path d="M715.81,133.51c-3.51-5.62.88-17-9.79-16.79-4.53-6.61-13.77-2.69-18,2.34-1.26,1.39-4.84,3.29-2,5a10.54,10.54,0,0,0-.94,1.83l.07-.16c-.85,1.91-.48,4.21-1.64,6-2.55,1.7-3.16,2.41.06,3.83-.49,11.29,14,8.08,20.62,5h0c3.23-1.08,5.57-3.81,8.81-4.82C714.06,135.31,716.94,135.35,715.81,133.51Z" style="fill:#2c2c2c"/></g></svg>